<svg xmlns="http://www.w3.org/2000/svg" viewBox="0 0 500 500"><g id="freepik--Floor--inject-2"><path id="freepik--floor--inject-2" d="M79,242.28c-94.46,54.53-94.46,143,0,197.48s247.61,54.54,342.06,0,94.46-142.95,0-197.48S173.42,187.74,79,242.28Z" style="fill:#fafafa"></path></g><g id="freepik--Windows--inject-2"><g id="freepik--Window--inject-2"><g id="freepik--window--inject-2"><polygon points="29.99 204.68 32.71 204.86 118.55 155.27 117.19 154.28 29.99 204.68" style="fill:#fafafa"></polygon><polygon points="117.19 154.28 32.71 203.11 32.71 83.12 117.19 34.29 117.19 154.28" style="fill:#fafafa"></polygon><path d="M121.27,28.82,30,81.55v128l91.28-52.73Zm-2.72,126.45L32.71,204.86V83.12l85.84-49.59Z" style="fill:#f0f0f0"></path><polygon points="118.55 155.27 117.19 154.28 117.19 34.29 118.55 33.53 118.55 155.27" style="fill:#e0e0e0"></polygon><polygon points="121.27 28.82 119.91 28.03 28.63 80.77 29.99 81.55 121.27 28.82" style="fill:#fafafa"></polygon><polygon points="28.63 80.77 29.99 81.55 29.99 209.57 28.63 208.79 28.63 80.77" style="fill:#e0e0e0"></polygon><polygon points="32.71 142.98 117.19 94.12 118.55 94.94 32.71 144.53 32.71 142.98" style="fill:#fafafa"></polygon><polygon points="118.55 94.94 118.55 97.98 32.71 147.57 32.71 144.53 118.55 94.94" style="fill:#f0f0f0"></polygon></g><g id="freepik--Blinds--inject-2"><path d="M32.71,120.91v3.63l85.2-49.26-.72-3.19Zm0-5.07v3.62l85.2-49.26L117.19,67Zm0,10.14v3.63l85.2-49.26-.72-3.19Zm0,5.08v3.62l85.2-49.26-.72-3.18Zm84.48-94.48L32.71,85.4V89l85.2-49.26Zm-84.48,59v3.63l85.2-49.26-.72-3.19Zm0,15.22v3.63l85.2-49.26-.72-3.19Zm0-10.14v3.62L117.91,55l-.72-3.18Zm0-10.15V94.1l85.2-49.26-.72-3.19Zm0,15.22v3.63l85.2-49.26-.72-3.19Z" style="fill:#ebebeb"></path><path d="M117.19,36.58,32.71,85.4v1.45l84.77-49ZM32.71,90.47v1.46l84.77-49-.29-1.27Zm0,5.07V97l84.77-49-.29-1.27Zm0,5.08v1.45l84.77-49-.29-1.26Zm0,5.07v1.46l84.77-49-.29-1.27Zm0,5.07v1.46l84.77-49-.29-1.27Zm0,5.08v1.45l84.77-49L117.19,67Zm0,5.07v1.46l84.77-49-.29-1.26Zm0,5.07v1.46l84.77-49-.29-1.27Zm0,5.08v1.45l84.77-49-.29-1.26Z" style="opacity:0.2"></path></g></g><g id="freepik--window--inject-2"><g id="freepik--window--inject-2"><polygon points="478.59 204.68 475.87 204.86 390.03 155.27 391.39 154.28 478.59 204.68" style="fill:#fafafa"></polygon><polygon points="391.39 154.28 475.87 203.11 475.87 83.12 391.39 34.29 391.39 154.28" style="fill:#fafafa"></polygon><path d="M387.31,156.84l91.28,52.73v-128L387.31,28.82ZM390,33.53l85.84,49.59V204.86L390,155.27Z" style="fill:#f0f0f0"></path><polygon points="390.03 155.27 391.39 154.28 391.39 34.29 390.03 33.53 390.03 155.27" style="fill:#e0e0e0"></polygon><polygon points="387.31 28.82 388.67 28.03 479.95 80.77 478.59 81.55 387.31 28.82" style="fill:#fafafa"></polygon><polygon points="479.95 80.77 478.59 81.55 478.59 209.57 479.95 208.79 479.95 80.77" style="fill:#e0e0e0"></polygon><polygon points="475.87 142.98 391.39 94.12 390.03 94.94 475.87 144.53 475.87 142.98" style="fill:#fafafa"></polygon><polygon points="390.03 94.94 390.03 97.98 475.87 147.57 475.87 144.53 390.03 94.94" style="fill:#f0f0f0"></polygon></g><g id="freepik--blinds--inject-2"><path d="M391.39,72.09l-.72,3.19,85.2,49.26v-3.63Zm0-5.07-.72,3.18,85.2,49.26v-3.62Zm0,10.14-.72,3.19,85.2,49.26V126Zm0,5.08-.72,3.18,85.2,49.26v-3.62Zm-.72-42.48L475.87,89V85.4L391.39,36.58Zm.72,7-.72,3.19,85.2,49.26V95.54Zm0,15.22-.72,3.19,85.2,49.26v-3.63Zm0-10.14L390.67,55l85.2,49.26v-3.62Zm0-10.15-.72,3.19,85.2,49.26V90.47Zm0,15.22-.72,3.19,85.2,49.26v-3.63Z" style="fill:#ebebeb"></path><path d="M391.1,37.84l84.77,49V85.4L391.39,36.58Zm.29,3.81-.29,1.27,84.77,49V90.47Zm0,5.07L391.1,48l84.77,49V95.54Zm0,5.08-.29,1.26,84.77,49v-1.45Zm0,5.07-.29,1.27,84.77,49v-1.46Zm0,5.07-.29,1.27,84.77,49v-1.46Zm0,5.08-.29,1.26,84.77,49v-1.45Zm0,5.07-.29,1.26,84.77,49v-1.46Zm0,5.07-.29,1.27,84.77,49V126Zm0,5.08-.29,1.26,84.77,49v-1.45Z" style="opacity:0.2"></path></g></g></g><g id="freepik--Pictures--inject-2"><g id="freepik--Picture--inject-2"><g id="freepik--Frame--inject-2"><polygon points="136.69 94.44 138.12 95.3 167.6 78.28 166.16 77.42 136.69 94.44" style="fill:#fafafa"></polygon><polygon points="166.16 77.42 138.12 93.61 138.12 64.24 166.17 48.06 166.16 77.42" style="fill:#fff"></polygon><path d="M170.31,42.53l-34.9,20.15V100l34.9-20.15ZM167.6,78.28l-29.48,17V64.24l29.48-17Z" style="fill:#f0f0f0"></path><polygon points="167.6 78.28 166.16 77.42 166.17 48.06 167.6 47.22 167.6 78.28" style="fill:#e0e0e0"></polygon><polygon points="170.31 42.53 168.85 41.69 133.95 61.84 135.41 62.68 170.31 42.53" style="fill:#fafafa"></polygon><polygon points="133.95 61.84 135.41 62.68 135.41 99.99 133.95 99.16 133.95 61.84" style="fill:#e0e0e0"></polygon></g><g id="freepik--Land--inject-2"><polygon points="165.07 76.54 139.22 91.47 139.22 84 145.68 69.08 149.71 72.81 148.26 79.07 157.19 59.98 165.07 69.08 165.07 76.54" style="fill:#f0f0f0"></polygon><path d="M149.46,61.87a4.24,4.24,0,0,0-1.91,3.31c0,1.22.86,1.72,1.91,1.11A4.22,4.22,0,0,0,151.38,63C151.38,61.76,150.52,61.26,149.46,61.87Z" style="fill:#f0f0f0"></path></g></g><g id="freepik--picture--inject-2"><g id="freepik--frame--inject-2"><polygon points="370.22 89.07 368.78 89.92 339.3 72.9 340.74 72.05 370.22 89.07" style="fill:#fafafa"></polygon><polygon points="340.74 72.05 368.78 88.23 368.78 58.87 340.74 42.69 340.74 72.05" style="fill:#fff"></polygon><path d="M336.59,74.47l34.9,20.15V57.3l-34.9-20.15Zm2.71-32.62,29.48,17V89.92l-29.48-17Z" style="fill:#f0f0f0"></path><polygon points="339.3 72.9 340.74 72.05 340.74 42.69 339.3 41.85 339.3 72.9" style="fill:#e0e0e0"></polygon><polygon points="336.59 37.15 338.05 36.32 372.95 56.47 371.49 57.3 336.59 37.15" style="fill:#fafafa"></polygon><polygon points="372.95 56.47 371.49 57.3 371.49 94.62 372.95 93.78 372.95 56.47" style="fill:#e0e0e0"></polygon></g><g id="freepik--land--inject-2"><polygon points="341.83 71.17 367.69 86.09 367.69 78.63 361.22 63.71 357.2 67.44 358.65 73.69 349.72 54.6 341.83 63.71 341.83 71.17" style="fill:#f0f0f0"></polygon><path d="M357.44,56.5a4.21,4.21,0,0,1,1.91,3.31c0,1.22-.85,1.71-1.91,1.1a4.19,4.19,0,0,1-1.91-3.31C355.53,56.38,356.38,55.89,357.44,56.5Z" style="fill:#f0f0f0"></path></g></g><g id="freepik--picture--inject-2"><g id="freepik--frame--inject-2"><polygon points="136.69 143.03 138.12 143.88 167.6 126.86 166.16 126.01 136.69 143.03" style="fill:#fafafa"></polygon><polygon points="166.16 126.01 138.12 142.19 138.12 112.83 166.17 96.65 166.16 126.01" style="fill:#fff"></polygon><path d="M170.31,91.11l-34.9,20.15v37.32l34.9-20.15Zm-2.71,35.75-29.48,17v-31l29.48-17Z" style="fill:#f0f0f0"></path><polygon points="167.6 126.86 166.16 126.01 166.17 96.65 167.6 95.81 167.6 126.86" style="fill:#e0e0e0"></polygon><polygon points="170.31 91.11 168.85 90.28 133.95 110.43 135.41 111.26 170.31 91.11" style="fill:#fafafa"></polygon><polygon points="133.95 110.43 135.41 111.26 135.41 148.58 133.95 147.74 133.95 110.43" style="fill:#e0e0e0"></polygon></g><g id="freepik--land--inject-2"><polygon points="165.07 125.13 139.22 140.06 139.22 132.59 145.68 117.67 149.71 121.4 148.26 127.65 157.19 108.56 165.07 117.67 165.07 125.13" style="fill:#f0f0f0"></polygon><path d="M149.46,110.46a4.24,4.24,0,0,0-1.91,3.31c0,1.22.86,1.71,1.91,1.1a4.22,4.22,0,0,0,1.92-3.31C151.38,110.34,150.52,109.85,149.46,110.46Z" style="fill:#f0f0f0"></path></g></g></g><g id="freepik--Shelves--inject-2"><g id="freepik--shelves--inject-2"><g id="freepik--Shelf--inject-2"><polygon points="263.27 118.32 240.84 105.37 181.78 139.43 181.79 141.9 204.21 154.84 263.27 120.78 263.27 118.32" style="fill:#ebebeb"></polygon><polygon points="204.21 152.38 263.27 118.32 240.84 105.37 181.78 139.43 204.21 152.38" style="fill:#fafafa"></polygon><polygon points="204.21 152.38 204.21 154.84 181.79 141.9 181.78 139.43 204.21 152.38" style="fill:#e6e6e6"></polygon><polygon points="247.59 84.03 260.75 91.63 260.75 116.66 247.59 109.06 247.59 84.03" style="fill:#ebebeb"></polygon><path d="M260.32,92l-12.73-7.3a5.4,5.4,0,0,1-2.91,1.59l12.62,7.28A13.07,13.07,0,0,0,260.32,92Z" style="fill:#fff"></path><path d="M256.08,93.56a2.71,2.71,0,0,0,2.45,0l2.14-1.23c.68-.39.68-1,0-1.4l-12.55-7.21-.53.31,12.34,7.13a.44.44,0,0,1,0,.84l-2,1.13a1.65,1.65,0,0,1-1.47,0L244.13,86l-.6.35Z" style="fill:#fafafa"></path><path d="M243.53,86.36v25l12.55,7.2a2.71,2.71,0,0,0,2.45,0l2.14-1.23a.85.85,0,0,0,.51-.7v-25a.85.85,0,0,1-.51.7l-2.14,1.23a2.71,2.71,0,0,1-2.45,0Z" style="fill:#e0e0e0"></path><path d="M257.3,93.85a2.46,2.46,0,0,0,1.23-.29l2.14-1.23a.85.85,0,0,0,.51-.7v25a.85.85,0,0,1-.51.7l-2.14,1.23a2.46,2.46,0,0,1-1.23.29Z" style="fill:#f0f0f0"></path><polygon points="242.07 87.82 255.23 95.42 251.14 121.21 237.98 113.61 242.07 87.82" style="fill:#ebebeb"></polygon><path d="M254.71,95.78,242,88.47a7,7,0,0,1-3.39,1.31l12.63,7.28A16.51,16.51,0,0,0,254.71,95.78Z" style="fill:#fff"></path><path d="M249.89,97a3.41,3.41,0,0,0,2.65.12l2.5-1c.79-.32.88-.9.21-1.29l-12.56-7.2-.62.25L254.41,95c.41.23.35.58-.12.77l-2.32.94a2.06,2.06,0,0,1-1.6-.08L238,89.47l-.7.29Z" style="fill:#fafafa"></path><path d="M237.33,89.76l-4.08,25.78,12.55,7.21a3.42,3.42,0,0,0,2.65.12l2.51-1c.39-.17.61-.39.65-.62l4.09-25.79c0,.23-.26.46-.66.62l-2.5,1a3.41,3.41,0,0,1-2.65-.12Z" style="fill:#e0e0e0"></path><path d="M251.17,97.29a3.38,3.38,0,0,0,1.37-.21l2.5-1c.4-.16.62-.39.66-.62l-4.09,25.79c0,.23-.26.45-.65.62l-2.51,1a3.21,3.21,0,0,1-1.37.2Z" style="fill:#f0f0f0"></path><g id="freepik--Pot--inject-2"><path id="freepik--Shadow--inject-2" d="M237.27,120.79c3.1,1.78,3.1,4.68,0,6.47a12.37,12.37,0,0,1-11.21,0c-3.1-1.79-3.1-4.69,0-6.47A12.37,12.37,0,0,1,237.27,120.79Z" style="opacity:0.05"></path><path d="M226.62,125.29c-2.69-2.75-4.28-9.62-1.65-11.8h13.38c2.63,2.18,1.05,9.05-1.64,11.8l-.08.08-.09.09-.24.21-.07.06-.2.15a3.37,3.37,0,0,1-.35.22,8.88,8.88,0,0,1-8,0h0a2.56,2.56,0,0,1-.35-.22l-.19-.15-.08-.06-.24-.21-.1-.1A.46.46,0,0,1,226.62,125.29Z" style="fill:#f5f5f5"></path><path d="M237.19,112.45c3.06,1.76,3.06,4.62,0,6.38a12.22,12.22,0,0,1-11.05,0c-3.06-1.76-3.06-4.62,0-6.38A12.16,12.16,0,0,1,237.19,112.45Z" style="fill:#fff"></path><path d="M235,113.7c1.85,1.07,1.85,2.81,0,3.88a7.46,7.46,0,0,1-6.73,0c-1.86-1.07-1.86-2.81,0-3.88A7.39,7.39,0,0,1,235,113.7Z" style="fill:#ebebeb"></path><path d="M228.3,115.54a7.46,7.46,0,0,1,6.73,0,3.17,3.17,0,0,1,1.11,1,3.17,3.17,0,0,1-1.11,1,7.46,7.46,0,0,1-6.73,0,3.17,3.17,0,0,1-1.11-1A3.17,3.17,0,0,1,228.3,115.54Z" style="fill:#e0e0e0"></path><path d="M234.62,116.56a15.2,15.2,0,0,0,2.43-3.24c1.12-2,1.33-4.64.75-5s-2.94,2.32-2.94,2.32a14.61,14.61,0,0,0,.24-3.39c-.09-1.77-.53-3.37-1-3.7s-1.64,1.91-2.13,3.53-.78,2.94-.78,2.94a25,25,0,0,0-.87-3.72c-.59-1.68-1.12-2.06-1.54-1.89s-.69,1-.81,3.18a23.14,23.14,0,0,0,.1,3.21s-.83-.92-1.76-1.81-1.45-1.11-1.74-.92-.37,1.7,1.21,4.55a15.69,15.69,0,0,0,3,3.91S230.9,118,234.62,116.56Z" style="fill:#ebebeb"></path></g><polygon points="210.79 103.02 223.95 110.62 223.95 135.65 210.79 128.05 210.79 103.02" style="fill:#e0e0e0"></polygon><path d="M223.52,111l-12.73-7.3a5.46,5.46,0,0,1-2.91,1.59l12.62,7.27A12.6,12.6,0,0,0,223.52,111Z" style="fill:#fff"></path><path d="M219.28,112.55a2.71,2.71,0,0,0,2.45,0l2.14-1.23c.68-.39.68-1,0-1.4l-12.55-7.21-.53.31,12.34,7.13c.41.23.41.6,0,.84l-2,1.13a1.65,1.65,0,0,1-1.47,0L207.33,105l-.6.35Z" style="fill:#fafafa"></path><path d="M206.73,105.35v25l12.55,7.2a2.71,2.71,0,0,0,2.45,0l2.14-1.23a.85.85,0,0,0,.51-.7v-25a.87.87,0,0,1-.51.7l-2.14,1.23a2.71,2.71,0,0,1-2.45,0Z" style="fill:#e0e0e0"></path><path d="M220.5,112.84a2.46,2.46,0,0,0,1.23-.29l2.14-1.23a.87.87,0,0,0,.51-.7v25a.85.85,0,0,1-.51.7l-2.14,1.23a2.57,2.57,0,0,1-1.23.29Z" style="fill:#f0f0f0"></path><polygon points="205.41 106.11 218.56 113.71 218.56 138.74 205.41 131.14 205.41 106.11" style="fill:#ebebeb"></polygon><path d="M218.14,114.12l-12.73-7.31a5.41,5.41,0,0,1-2.91,1.6l12.62,7.27A12.6,12.6,0,0,0,218.14,114.12Z" style="fill:#fff"></path><path d="M213.9,115.64a2.71,2.71,0,0,0,2.45,0l2.14-1.23a.75.75,0,0,0,0-1.41l-12.55-7.2-.53.31,12.34,7.12c.41.24.41.61,0,.85l-2,1.13a1.65,1.65,0,0,1-1.47,0L202,108.09l-.6.35Z" style="fill:#fafafa"></path><path d="M201.35,108.44v25l12.55,7.2a2.71,2.71,0,0,0,2.45,0l2.14-1.23a.87.87,0,0,0,.51-.7v-25a.87.87,0,0,1-.51.7l-2.14,1.23a2.71,2.71,0,0,1-2.45,0Z" style="fill:#e0e0e0"></path><path d="M215.12,115.93a2.6,2.6,0,0,0,1.23-.29l2.14-1.23a.87.87,0,0,0,.51-.7v25a.87.87,0,0,1-.51.7l-2.14,1.23a2.6,2.6,0,0,1-1.23.29Z" style="fill:#f0f0f0"></path><polygon points="200.09 111.42 213.25 119.02 209.16 144.8 196.01 137.2 200.09 111.42" style="fill:#ebebeb"></polygon><path d="M212.73,119.38,200,112.06a6.92,6.92,0,0,1-3.39,1.32l12.63,7.28A17.38,17.38,0,0,0,212.73,119.38Z" style="fill:#fff"></path><path d="M207.91,120.56a3.42,3.42,0,0,0,2.65.12l2.51-1c.79-.33.88-.9.2-1.29l-12.55-7.21-.63.26,12.35,7.12c.4.24.35.58-.13.77l-2.32.94a2,2,0,0,1-1.59-.07l-12.34-7.11-.71.28Z" style="fill:#fafafa"></path><path d="M195.35,113.35l-4.08,25.79,12.55,7.21a3.44,3.44,0,0,0,2.66.11l2.5-1c.39-.16.61-.38.65-.62L213.72,119c0,.23-.26.45-.65.61l-2.51,1a3.42,3.42,0,0,1-2.65-.12Z" style="fill:#e0e0e0"></path><path d="M209.19,120.89a3.38,3.38,0,0,0,1.37-.21l2.51-1c.39-.16.61-.38.65-.61l-4.09,25.78c0,.24-.26.46-.65.62l-2.5,1a3.24,3.24,0,0,1-1.37.21Z" style="fill:#f0f0f0"></path></g><g id="freepik--shelf--inject-2"><polygon points="263.27 69.74 240.84 56.79 181.78 90.85 181.79 93.31 204.21 106.26 263.27 72.2 263.27 69.74" style="fill:#ebebeb"></polygon><polygon points="204.21 103.8 263.27 69.74 240.84 56.79 181.78 90.85 204.21 103.8" style="fill:#fafafa"></polygon><polygon points="204.21 103.8 204.21 106.26 181.79 93.31 181.78 90.85 204.21 103.8" style="fill:#e6e6e6"></polygon><polygon points="244.29 33.07 258.83 41.47 258.83 69.14 244.29 60.74 244.29 33.07" style="fill:#ebebeb"></polygon><path d="M258.36,41.93l-14.07-8.08a5.88,5.88,0,0,1-3.22,1.76l14,8A13.81,13.81,0,0,0,258.36,41.93Z" style="fill:#fff"></path><path d="M253.67,43.61a3,3,0,0,0,2.71,0l2.37-1.36a.82.82,0,0,0,0-1.55l-13.87-8-.59.33L257.93,41c.45.26.45.67,0,.93l-2.2,1.25a1.8,1.8,0,0,1-1.63,0l-13.63-7.86-.67.38Z" style="fill:#fafafa"></path><path d="M239.8,35.65V63.31l13.87,8a3,3,0,0,0,2.71,0l2.37-1.36a.94.94,0,0,0,.56-.77V41.47a1,1,0,0,1-.56.78l-2.37,1.36a3,3,0,0,1-2.71,0Z" style="fill:#e0e0e0"></path><path d="M255,43.93a2.87,2.87,0,0,0,1.36-.32l2.37-1.36a1,1,0,0,0,.56-.78V69.14a.94.94,0,0,1-.56.77l-2.37,1.36a2.76,2.76,0,0,1-1.36.32Z" style="fill:#f0f0f0"></path><polygon points="238.64 37.88 253.18 46.28 248.66 74.78 234.12 66.38 238.64 37.88" style="fill:#ebebeb"></polygon><path d="M252.61,46.68l-14.08-8.09a7.66,7.66,0,0,1-3.75,1.46l14,8A18.78,18.78,0,0,0,252.61,46.68Z" style="fill:#fff"></path><path d="M247.28,48a3.76,3.76,0,0,0,2.93.13L253,47c.87-.35,1-1,.22-1.42l-13.87-8-.69.28,13.64,7.88c.45.25.39.63-.13.85l-2.57,1a2.27,2.27,0,0,1-1.76-.07L234.18,39.7l-.78.32Z" style="fill:#fafafa"></path><path d="M233.4,40l-4.52,28.5,13.88,8a3.8,3.8,0,0,0,2.93.14l2.77-1.13c.44-.18.68-.43.72-.69l4.52-28.5c0,.26-.29.5-.72.68l-2.77,1.14a3.8,3.8,0,0,1-2.93-.14Z" style="fill:#e0e0e0"></path><path d="M248.7,48.34a3.72,3.72,0,0,0,1.51-.22L253,47c.43-.18.68-.42.72-.68l-4.52,28.5c0,.26-.28.51-.72.69l-2.77,1.13a3.69,3.69,0,0,1-1.51.22Z" style="fill:#f0f0f0"></path><g id="freepik--picture--inject-2"><g id="freepik--frame--inject-2"><polygon points="214.47 89.65 215.51 90.15 234.59 79.13 233.56 78.64 214.47 89.65" style="fill:#fafafa"></polygon><polygon points="233.56 78.64 215.41 89.11 212.76 61.97 230.92 51.49 233.56 78.64" style="fill:#fff"></polygon><path d="M233.41,48l-22.59,13,3.12,32,22.59-13Zm1.18,31.11-19.08,11L212.76,62l19.08-11Z" style="fill:#f0f0f0"></path><polygon points="234.59 79.13 233.56 78.64 230.92 51.49 231.84 50.95 234.59 79.13" style="fill:#e0e0e0"></polygon><polygon points="233.41 48.02 232.37 47.53 209.78 60.58 210.82 61.06 233.41 48.02" style="fill:#fafafa"></polygon><polygon points="209.78 60.58 210.82 61.06 213.94 93.08 212.89 92.6 209.78 60.58" style="fill:#e0e0e0"></polygon></g><g id="freepik--land--inject-2"><polygon points="232.76 78.12 216.02 87.78 215.58 83.21 218.69 69.77 221.66 74.36 221.04 78.22 225.99 63.96 232.31 73.55 232.76 78.12" style="fill:#f0f0f0"></polygon><path d="M218.43,64.11a2.38,2.38,0,0,0-1.1,2.07c.07.75.68,1,1.37.64a2.34,2.34,0,0,0,1.1-2.07C219.73,64,219.12,63.72,218.43,64.11Z" style="fill:#f0f0f0"></path></g></g><g id="freepik--pot--inject-2"><path id="freepik--shadow--inject-2" d="M205.08,87.77c3.09,1.79,3.09,4.68,0,6.47a12.39,12.39,0,0,1-11.22,0c-3.09-1.79-3.09-4.68,0-6.47A12.37,12.37,0,0,1,205.08,87.77Z" style="opacity:0.05"></path><path d="M194.43,92.28c-2.7-2.75-4.28-9.62-1.65-11.81h13.38c2.63,2.19,1.05,9-1.65,11.8l-.07.08-.09.09-.25.22-.06,0-.21.15a3.26,3.26,0,0,1-.34.22,8.9,8.9,0,0,1-8,0h0l-.35-.22a1.33,1.33,0,0,0-.19-.14l-.08-.07-.23-.2-.11-.11Z" style="fill:#f5f5f5"></path><path d="M205,79.43c3.05,1.76,3.05,4.62,0,6.38a12.24,12.24,0,0,1-11.06,0c-3.05-1.76-3.05-4.62,0-6.38A12.24,12.24,0,0,1,205,79.43Z" style="fill:#fff"></path><path d="M202.83,80.68c1.86,1.07,1.86,2.81,0,3.88a7.44,7.44,0,0,1-6.72,0c-1.86-1.07-1.86-2.81,0-3.88A7.44,7.44,0,0,1,202.83,80.68Z" style="fill:#ebebeb"></path><path d="M196.11,82.52a7.44,7.44,0,0,1,6.72,0,3.12,3.12,0,0,1,1.12,1,3.12,3.12,0,0,1-1.12,1,7.44,7.44,0,0,1-6.72,0,3.12,3.12,0,0,1-1.12-1A3.12,3.12,0,0,1,196.11,82.52Z" style="fill:#e0e0e0"></path><path d="M202.42,83.54a15.51,15.51,0,0,0,2.44-3.23c1.12-2,1.33-4.65.75-5s-3,2.33-3,2.33a14.36,14.36,0,0,0,.25-3.39c-.1-1.77-.53-3.38-1-3.71s-1.64,1.91-2.12,3.53-.78,3-.78,3a25,25,0,0,0-.87-3.73c-.59-1.68-1.13-2-1.54-1.89s-.69,1-.81,3.19a21.4,21.4,0,0,0,.1,3.2s-.83-.92-1.76-1.81-1.45-1.11-1.74-.92-.37,1.7,1.2,4.55a16,16,0,0,0,3,3.91S198.7,85,202.42,83.54Z" style="fill:#ebebeb"></path></g></g></g></g><g id="freepik--Furniture--inject-2"><g id="freepik--Cabinet--inject-2"><g id="freepik--cabinet--inject-2"><polygon points="341.87 248.58 375.43 229.21 375.43 124.03 341.87 143.41 341.87 248.58" style="fill:#e0e0e0"></polygon><polygon points="341.87 143.41 284.33 110.19 284.33 215.36 341.87 248.58 341.87 143.41" style="fill:#ebebeb"></polygon><polygon points="284.33 110.19 341.87 143.41 375.43 124.03 317.89 90.81 284.33 110.19" style="fill:#f5f5f5"></polygon><polygon points="337.08 211.57 289.13 183.88 289.13 210.54 288.25 211.05 336.2 238.74 337.08 238.23 337.08 211.57" style="fill:#e0e0e0"></polygon><polygon points="336.2 212.08 288.24 184.4 288.25 211.05 336.2 238.74 336.2 212.08" style="fill:#f5f5f5"></polygon><path d="M317.78,206l-6.52-3.76c-.85-.49-1.54-.27-1.54.5a3.08,3.08,0,0,0,1.54,2.27l6.52,3.76c.85.49,1.53.27,1.53-.5A3.07,3.07,0,0,0,317.78,206Z" style="fill:#e0e0e0"></path><polygon points="337.08 179.39 289.13 151.7 289.13 178.35 288.25 178.87 336.2 206.55 337.08 206.04 337.08 179.39" style="fill:#e0e0e0"></polygon><polygon points="336.2 179.9 288.24 152.21 288.25 178.87 336.2 206.55 336.2 179.9" style="fill:#f5f5f5"></polygon><path d="M317.78,173.78,311.26,170c-.85-.48-1.54-.26-1.54.5a3.06,3.06,0,0,0,1.54,2.27l6.52,3.77c.85.49,1.53.26,1.53-.5A3.05,3.05,0,0,0,317.78,173.78Z" style="fill:#e0e0e0"></path><polygon points="337.08 147.2 289.13 119.52 289.13 146.17 288.25 146.68 336.2 174.37 337.08 173.86 337.08 147.2" style="fill:#e0e0e0"></polygon><polygon points="336.2 147.71 288.25 120.03 288.25 146.68 336.2 174.37 336.2 147.71" style="fill:#f5f5f5"></polygon><path d="M317.78,141.59l-6.52-3.76c-.85-.49-1.53-.27-1.53.5a3.07,3.07,0,0,0,1.53,2.27l6.52,3.76c.85.49,1.53.27,1.53-.5A3.07,3.07,0,0,0,317.78,141.59Z" style="fill:#e0e0e0"></path></g></g></g><g id="freepik--Plant--inject-2"><g id="freepik--plant--inject-2"><g id="freepik--pot--inject-2"><path d="M370.49,269c-7-7.21-11.1-25.34-4.28-31.06h34.68c6.82,5.72,2.72,23.84-4.27,31.05l-.19.2-.24.24-.63.57-.17.13c-.17.14-.34.27-.53.4a8.17,8.17,0,0,1-.9.59c-5.75,3.35-15.07,3.35-20.82,0h0c-.3-.17-.61-.38-.91-.59s-.33-.25-.49-.38a1.56,1.56,0,0,1-.2-.16,8.18,8.18,0,0,1-.61-.55l-.28-.27Z" style="fill:#37474f"></path><path d="M397.88,235.65c7.91,4.62,7.91,12.11,0,16.73s-20.74,4.62-28.66,0-7.91-12.11,0-16.73S390,231,397.88,235.65Z" style="fill:#455a64"></path><path d="M394.07,237.87c5.82,3.4,5.81,8.9,0,12.29s-15.23,3.39-21,0-5.81-8.89,0-12.29S388.26,234.48,394.07,237.87Z" style="fill:#263238"></path><path d="M373,243.7c5.81-3.39,15.23-3.39,21,0a9.63,9.63,0,0,1,3.48,3.23,9.54,9.54,0,0,1-3.48,3.23c-5.81,3.39-15.23,3.39-21,0a9.71,9.71,0,0,1-3.48-3.23A9.8,9.8,0,0,1,373,243.7Z" style="fill:#fafafa"></path></g><path d="M381.22,197.45c-2.66,2.88-10.05,3.68-13.1-4.1-2.87-7.3-6-14.22-6.85-16.9a2.75,2.75,0,0,1,1.76-3.56s.22-4,7-1.29,11.59,6.84,14.55,13.51S385.77,196.56,381.22,197.45Z" style="fill:#407BFF"></path><path d="M381.22,197.45c-2.66,2.88-10.05,3.68-13.1-4.1-2.87-7.3-6-14.22-6.85-16.9a2.75,2.75,0,0,1,1.76-3.56s.22-4,7-1.29,11.59,6.84,14.55,13.51S385.77,196.56,381.22,197.45Z" style="fill:#fff;opacity:0.65"></path><path d="M384.16,207.74a37.11,37.11,0,0,0-.59-4.06,57,57,0,0,0-10.13-22.36,49.77,49.77,0,0,0-6.19-7c-.07-.06-.12.09-.07.14a61.72,61.72,0,0,1,9.69,13.39A62.91,62.91,0,0,1,382.48,203c.33,1.48.65,3,.92,4.45s.43,3.05.69,4.57c0,.15.26.24.27,0A28.54,28.54,0,0,0,384.16,207.74Z" style="fill:#407BFF"></path><path d="M384.16,207.74a37.11,37.11,0,0,0-.59-4.06,57,57,0,0,0-10.13-22.36,49.77,49.77,0,0,0-6.19-7c-.07-.06-.12.09-.07.14a61.72,61.72,0,0,1,9.69,13.39A62.91,62.91,0,0,1,382.48,203c.33,1.48.65,3,.92,4.45s.43,3.05.69,4.57c0,.15.26.24.27,0A28.54,28.54,0,0,0,384.16,207.74Z" style="opacity:0.30000000000000004"></path><path d="M386.43,195.44c-6.1,1.88-10.64-2.88-9.07-10.35s9.42-15.76,12.38-13.53c1.85-1.86,5.93-1.19,7.85,4.88S397.76,198.08,386.43,195.44Z" style="fill:#407BFF"></path><path d="M386.43,195.44c-6.1,1.88-10.64-2.88-9.07-10.35s9.42-15.76,12.38-13.53c1.85-1.86,5.93-1.19,7.85,4.88S397.76,198.08,386.43,195.44Z" style="fill:#fff;opacity:0.35000000000000003"></path><path d="M390,176.1A82.37,82.37,0,0,0,386,189.52a131.13,131.13,0,0,0-2.35,14,220.36,220.36,0,0,0-1.23,27.55q0,3.81.11,7.62c0,2.61,0,5.26.23,7.87.08,1,1.5.73,1.52-.19.09-4.57-.16-9.17-.21-13.74s0-9.05.09-13.57a190.55,190.55,0,0,1,2.47-27.51c.44-2.53.92-5.06,1.51-7.56s1.38-5.23,2.07-7.84C390.19,176.1,390.07,176,390,176.1Z" style="fill:#407BFF"></path><path d="M390,176.1A82.37,82.37,0,0,0,386,189.52a131.13,131.13,0,0,0-2.35,14,220.36,220.36,0,0,0-1.23,27.55q0,3.81.11,7.62c0,2.61,0,5.26.23,7.87.08,1,1.5.73,1.52-.19.09-4.57-.16-9.17-.21-13.74s0-9.05.09-13.57a190.55,190.55,0,0,1,2.47-27.51c.44-2.53.92-5.06,1.51-7.56s1.38-5.23,2.07-7.84C390.19,176.1,390.07,176,390,176.1Z" style="opacity:0.30000000000000004"></path><path d="M376.5,217.34c-2.67,3-8.78,2.75-12.88-2.63s-6.55-25.64-.79-24.35c1.22-2.7,17.16,3.79,19.2,17C383.52,217,376.5,217.34,376.5,217.34Z" style="fill:#407BFF"></path><path d="M376.5,217.34c-2.67,3-8.78,2.75-12.88-2.63s-6.55-25.64-.79-24.35c1.22-2.7,17.16,3.79,19.2,17C383.52,217,376.5,217.34,376.5,217.34Z" style="fill:#fff;opacity:0.35000000000000003"></path><path d="M381.27,226.91a29.2,29.2,0,0,0-.79-3.69q-1-3.72-2.37-7.33a77.84,77.84,0,0,0-7.12-14,67.65,67.65,0,0,0-5.06-7.14c-.05-.06-.1.08-.07.12,1.43,2.07,2.87,4.13,4.15,6.29a76.25,76.25,0,0,1,3.61,6.95,96,96,0,0,1,5.26,14.1c.39,1.37.71,2.76,1.12,4.13s.95,2.81,1.3,4.25c.06.21.32.28.3,0C381.47,229.39,381.43,228.15,381.27,226.91Z" style="fill:#407BFF"></path><path d="M381.27,226.91a29.2,29.2,0,0,0-.79-3.69q-1-3.72-2.37-7.33a77.84,77.84,0,0,0-7.12-14,67.65,67.65,0,0,0-5.06-7.14c-.05-.06-.1.08-.07.12,1.43,2.07,2.87,4.13,4.15,6.29a76.25,76.25,0,0,1,3.61,6.95,96,96,0,0,1,5.26,14.1c.39,1.37.71,2.76,1.12,4.13s.95,2.81,1.3,4.25c.06.21.32.28.3,0C381.47,229.39,381.43,228.15,381.27,226.91Z" style="opacity:0.30000000000000004"></path><path d="M386.26,214.35c-3.49-.79-3.67-5,.69-10.13s15.35-7.38,15.87-5.21c2.44,0,2.44,7.64-3,14.67S386.58,219.07,386.26,214.35Z" style="fill:#407BFF"></path><path d="M386.26,214.35c-3.49-.79-3.67-5,.69-10.13s15.35-7.38,15.87-5.21c2.44,0,2.44,7.64-3,14.67S386.58,219.07,386.26,214.35Z" style="fill:#fff;opacity:0.35000000000000003"></path><path d="M393.09,206.87a27.65,27.65,0,0,0-10.1,13c-.11.3.41.74.53.41a32.08,32.08,0,0,1,9.59-13.37S393.13,206.84,393.09,206.87Z" style="fill:#407BFF"></path><path d="M393.09,206.87a27.65,27.65,0,0,0-10.1,13c-.11.3.41.74.53.41a32.08,32.08,0,0,1,9.59-13.37S393.13,206.84,393.09,206.87Z" style="opacity:0.30000000000000004"></path><path d="M390.24,239.87c-4.83,1.95-2.76,7.71,2,12.08a21.56,21.56,0,0,0,14.7,5.29c3.24-.23,4.07-.68,4.07-.68a36.87,36.87,0,0,0,0-8,15.48,15.48,0,0,0-11.39-12.27C392.05,234.27,390.24,237,390.24,239.87Z" style="fill:#407BFF"></path><path d="M390.24,239.87c-4.83,1.95-2.76,7.71,2,12.08a21.56,21.56,0,0,0,14.7,5.29c3.24-.23,4.07-.68,4.07-.68a36.87,36.87,0,0,0,0-8,15.48,15.48,0,0,0-11.39-12.27C392.05,234.27,390.24,237,390.24,239.87Z" style="fill:#fff;opacity:0.65"></path><path d="M403.62,248.36a39.35,39.35,0,0,0-7.4-6.84c-2.75-1.81-6.42-3.36-9.72-2.23-1.28.44-3.27,1.71-3,3.3,0,.15.31.54.5.33a13,13,0,0,1,1.74-2,5.15,5.15,0,0,1,2.59-1,12,12,0,0,1,6.77,1.55c3.27,1.73,5.91,4.41,8.51,7C403.61,248.47,403.64,248.39,403.62,248.36Z" style="fill:#407BFF"></path><path d="M403.62,248.36a39.35,39.35,0,0,0-7.4-6.84c-2.75-1.81-6.42-3.36-9.72-2.23-1.28.44-3.27,1.71-3,3.3,0,.15.31.54.5.33a13,13,0,0,1,1.74-2,5.15,5.15,0,0,1,2.59-1,12,12,0,0,1,6.77,1.55c3.27,1.73,5.91,4.41,8.51,7C403.61,248.47,403.64,248.39,403.62,248.36Z" style="opacity:0.30000000000000004"></path><path d="M371.85,215.13c.45-2.2-2.72-7.47-12.63-8.48s-17.32,3.19-18.82,5.11-2.25,3.94-.45,4.44,8,1.11,12,3,12.33,7.4,18,5.75S374.65,217.31,371.85,215.13Z" style="fill:#407BFF"></path><path d="M371.85,215.13c.45-2.2-2.72-7.47-12.63-8.48s-17.32,3.19-18.82,5.11-2.25,3.94-.45,4.44,8,1.11,12,3,12.33,7.4,18,5.75S374.65,217.31,371.85,215.13Z" style="fill:#fff;opacity:0.65"></path><path d="M379.38,222.8c-4.18-8.63-14.95-11.27-23.75-11.22a34.94,34.94,0,0,0-8.58,1.12s-.05.11,0,.1a45.38,45.38,0,0,1,14.34-.15,29.76,29.76,0,0,1,13.1,5,18,18,0,0,1,4.69,5.26C379.3,223.17,379.46,223,379.38,222.8Z" style="fill:#407BFF"></path><path d="M379.38,222.8c-4.18-8.63-14.95-11.27-23.75-11.22a34.94,34.94,0,0,0-8.58,1.12s-.05.11,0,.1a45.38,45.38,0,0,1,14.34-.15,29.76,29.76,0,0,1,13.1,5,18,18,0,0,1,4.69,5.26C379.3,223.17,379.46,223,379.38,222.8Z" style="opacity:0.30000000000000004"></path><path d="M394.92,203.57c-.12,3.46,4.75,5.47,9.47,2.48s9.66-5.91,14-7,6.44-4.7,5.06-6.42-3.58-6.08-15.07-4.66-15.57,6.6-17.14,10.26S393.19,204.57,394.92,203.57Z" style="fill:#407BFF"></path><path d="M394.92,203.57c-.12,3.46,4.75,5.47,9.47,2.48s9.66-5.91,14-7,6.44-4.7,5.06-6.42-3.58-6.08-15.07-4.66-15.57,6.6-17.14,10.26S393.19,204.57,394.92,203.57Z" style="fill:#fff;opacity:0.65"></path><path d="M413.63,192.57a12.51,12.51,0,0,0-4.93.52,24.39,24.39,0,0,0-4.22,1.51,23.26,23.26,0,0,0-7.19,5.21,19,19,0,0,0-1.62,1.95,8.68,8.68,0,0,0-1.23,2c-.07.23.26.6.46.37.57-.66,1-1.46,1.53-2.15a21.94,21.94,0,0,1,1.85-2.12,23.33,23.33,0,0,1,4.43-3.49,27.85,27.85,0,0,1,4.91-2.39c.93-.34,1.89-.61,2.86-.86a10,10,0,0,1,3.12-.43C413.66,192.7,413.68,192.58,413.63,192.57Z" style="fill:#407BFF"></path><path d="M413.63,192.57a12.51,12.51,0,0,0-4.93.52,24.39,24.39,0,0,0-4.22,1.51,23.26,23.26,0,0,0-7.19,5.21,19,19,0,0,0-1.62,1.95,8.68,8.68,0,0,0-1.23,2c-.07.23.26.6.46.37.57-.66,1-1.46,1.53-2.15a21.94,21.94,0,0,1,1.85-2.12,23.33,23.33,0,0,1,4.43-3.49,27.85,27.85,0,0,1,4.91-2.39c.93-.34,1.89-.61,2.86-.86a10,10,0,0,1,3.12-.43C413.66,192.7,413.68,192.58,413.63,192.57Z" style="opacity:0.30000000000000004"></path><path d="M386.67,222.27c-1.61-1.61-6-1.24-8.05,3.52s2.28,10,2.76,11.43c2-1.15,3.55-.46,7.07-1.15a8.78,8.78,0,0,0,6.74-8.75C395,223,393.12,220.08,386.67,222.27Z" style="fill:#407BFF"></path><path d="M386.67,222.27c-1.61-1.61-6-1.24-8.05,3.52s2.28,10,2.76,11.43c2-1.15,3.55-.46,7.07-1.15a8.78,8.78,0,0,0,6.74-8.75C395,223,393.12,220.08,386.67,222.27Z" style="fill:#fff;opacity:0.65"></path><path d="M386.61,221.79a6.53,6.53,0,0,0-2.13,2.21,11.59,11.59,0,0,0-1.38,2.66,11.34,11.34,0,0,0-.61,6.07c0,.07.08,0,.07,0a11.94,11.94,0,0,1,2.47-8.39c.31-.39.63-.77,1-1.13a5.78,5.78,0,0,0,.93-.92C387,222.06,386.86,221.67,386.61,221.79Z" style="fill:#407BFF"></path><path d="M386.61,221.79a6.53,6.53,0,0,0-2.13,2.21,11.59,11.59,0,0,0-1.38,2.66,11.34,11.34,0,0,0-.61,6.07c0,.07.08,0,.07,0a11.94,11.94,0,0,1,2.47-8.39c.31-.39.63-.77,1-1.13a5.78,5.78,0,0,0,.93-.92C387,222.06,386.86,221.67,386.61,221.79Z" style="opacity:0.30000000000000004"></path><path d="M379.09,231.91c-.14-3.54-4-6.35-9.44-8A14.88,14.88,0,0,0,354.29,228c-4,4.33-6.05,8-4.43,9.06s8.86,3.69,13.58,5.17,10.93,1.92,15.65-.89S383.52,233.68,379.09,231.91Z" style="fill:#407BFF"></path><path d="M379.09,231.91c-.14-3.54-4-6.35-9.44-8A14.88,14.88,0,0,0,354.29,228c-4,4.33-6.05,8-4.43,9.06s8.86,3.69,13.58,5.17,10.93,1.92,15.65-.89S383.52,233.68,379.09,231.91Z" style="fill:#fff;opacity:0.35000000000000003"></path><path d="M379.4,231.51a15.07,15.07,0,0,0-5.94-1.58,27.44,27.44,0,0,0-5.94.07,37.9,37.9,0,0,0-6.16,1.3c-1.05.31-2.09.66-3.12,1a20.93,20.93,0,0,0-2.86,1.17s-.06.14,0,.13c1-.21,2-.61,3-.91s2.11-.63,3.18-.91a41.9,41.9,0,0,1,6.07-1.15,27.09,27.09,0,0,1,6.17,0,37.33,37.33,0,0,1,5.59,1.36C379.73,232.17,379.61,231.64,379.4,231.51Z" style="fill:#407BFF"></path><path d="M379.4,231.51a15.07,15.07,0,0,0-5.94-1.58,27.44,27.44,0,0,0-5.94.07,37.9,37.9,0,0,0-6.16,1.3c-1.05.31-2.09.66-3.12,1a20.93,20.93,0,0,0-2.86,1.17s-.06.14,0,.13c1-.21,2-.61,3-.91s2.11-.63,3.18-.91a41.9,41.9,0,0,1,6.07-1.15,27.09,27.09,0,0,1,6.17,0,37.33,37.33,0,0,1,5.59,1.36C379.73,232.17,379.61,231.64,379.4,231.51Z" style="opacity:0.30000000000000004"></path><path d="M390.37,226.64c-3.91-3.11-2.61-10.55,11.06-10.95s23.43,3.17,23,7.57c2.2,2.2,1.09,8.36-10,10.28S387.55,234.51,390.37,226.64Z" style="fill:#407BFF"></path><path d="M390.37,226.64c-3.91-3.11-2.61-10.55,11.06-10.95s23.43,3.17,23,7.57c2.2,2.2,1.09,8.36-10,10.28S387.55,234.51,390.37,226.64Z" style="fill:#fff;opacity:0.35000000000000003"></path><path d="M418,223.31a58.59,58.59,0,0,0-12.2-.72,47.43,47.43,0,0,0-11.27,1.3,16.48,16.48,0,0,0-2.75,1c-.41.2-.82.41-1.2.64s-.66.35-.77.72a.37.37,0,0,0,.41.43,14.72,14.72,0,0,0,2.39-1.18,19.56,19.56,0,0,1,2.36-.86,29.57,29.57,0,0,1,4.75-.94,83.91,83.91,0,0,1,11.53-.63c2.25,0,4.49.2,6.73.37C418,223.47,418.06,223.32,418,223.31Z" style="fill:#407BFF"></path><path d="M418,223.31a58.59,58.59,0,0,0-12.2-.72,47.43,47.43,0,0,0-11.27,1.3,16.48,16.48,0,0,0-2.75,1c-.41.2-.82.41-1.2.64s-.66.35-.77.72a.37.37,0,0,0,.41.43,14.72,14.72,0,0,0,2.39-1.18,19.56,19.56,0,0,1,2.36-.86,29.57,29.57,0,0,1,4.75-.94,83.91,83.91,0,0,1,11.53-.63c2.25,0,4.49.2,6.73.37C418,223.47,418.06,223.32,418,223.31Z" style="opacity:0.30000000000000004"></path></g></g><g id="freepik--Device--inject-2"><g id="freepik--device--inject-2"><g id="freepik--Case--inject-2"><path d="M312.49,255.48l4-2.3s21.09-68.8,23.05-72.79-1.59-6-5.38-3.82l-198,114.15c-3.8,2.19-5,5.21-8.37,11.77s-22.42,69.78-22.42,69.78a3.52,3.52,0,0,0,1.7,3.71l45.07,26.11L359.21,282.54Z" style="fill:#407BFF"></path><path d="M312.49,255.48l4-2.3s21.09-68.8,23.05-72.79-1.59-6-5.38-3.82l-198,114.15c-3.8,2.19-5,5.21-8.37,11.77s-22.42,69.78-22.42,69.78a3.52,3.52,0,0,0,1.7,3.71l45.07,26.11L359.21,282.54Z" style="fill:#fff;opacity:0.35000000000000003"></path><path d="M130.27,304.08c-2.57,5-22.4,69.53-22.4,69.53L319,251.74S339.9,186.12,342,182s-1.59-6-5.39-3.83l-198,114.16C134.84,294.5,132.84,299.1,130.27,304.08Z" style="fill:#407BFF"></path><path d="M130.27,304.08c-2.57,5-22.4,69.53-22.4,69.53L319,251.74S339.9,186.12,342,182s-1.59-6-5.39-3.83l-198,114.16C134.84,294.5,132.84,299.1,130.27,304.08Z" style="opacity:0.15"></path><polygon points="314.94 254.06 107.87 373.61 153.73 400.09 360.8 280.55 314.94 254.06" style="fill:#407BFF"></polygon><path d="M329.36,103.29l-199.5,115c-4.37,2.53-5.74,6.61-5,12L148.5,396c.77,5.39,5.06,8.54,9.44,6L355.67,287.85c4.38-2.53,7.3-8.94,6.53-14.33l-23.52-165C337.91,103.08,333.74,100.76,329.36,103.29Z" style="fill:#407BFF"></path><path d="M329.36,103.29l-199.5,115c-4.37,2.53-5.74,6.61-5,12L148.5,396c.77,5.39,5.06,8.54,9.44,6L355.67,287.85c4.38-2.53,7.3-8.94,6.53-14.33l-23.52-165C337.91,103.08,333.74,100.76,329.36,103.29Z" style="fill:#fff;opacity:0.35000000000000003"></path></g><g id="freepik--Tablet--inject-2"><path d="M342.81,106.8a6.17,6.17,0,0,0-5.38.67L139.69,221.6a13.26,13.26,0,0,0-5.05,5.79l-6.38-2.71c1.4-3.06,3.85-4.18,5.94-5.4L331.94,105.15a6.11,6.11,0,0,1,5.58-.57h0Z" style="fill:#455a64"></path><path d="M154.91,403.63h0c-2-.8-3.41-2.84-3.84-5.8L127.68,233.6c-.49-3.36-.64-6.38.58-8.92l6.38,2.7c-.17.35-.32.71-.47,1.09s-.22.59-.31.88a.43.43,0,0,0,0,.14,10.08,10.08,0,0,0-.31,1c-.09.36-.17.73-.23,1.09a5.63,5.63,0,0,0-.11.81,12.82,12.82,0,0,0,0,3.5L156.69,401c.42,3,1.91,5,3.89,5.84Z" style="fill:#263238"></path><path d="M337.43,107.48l-199.51,115c-4.37,2.52-5.74,6.61-5,12L156.68,401c.77,5.39,4.94,7.71,9.32,5.18L363.74,292c4.37-2.52,7.29-8.94,6.52-14.32L346.75,112.66C346,107.28,341.8,105,337.43,107.48Z" style="fill:#37474f"></path><path d="M351.6,291.28,175.1,393.14c-2.27,1.31-4.43.11-4.83-2.69L147,227.11a7.87,7.87,0,0,1,3.38-7.42L326.87,117.83c2.26-1.31,4.43-.1,4.82,2.69L355,283.86A7.86,7.86,0,0,1,351.6,291.28Z" style="fill:#263238"></path><path d="M147,227.11l23.29,163.34a3.23,3.23,0,0,0,.06.33l176.5-101.86a7.85,7.85,0,0,0,3.38-7.42L326.87,117.83,150.36,219.69A7.87,7.87,0,0,0,147,227.11Z" style="fill:#fafafa"></path><path d="M156,328.26a4,4,0,0,1-1.7,3.73c-1.14.66-2.23.05-2.43-1.35a4,4,0,0,1,1.7-3.74C154.7,326.25,155.79,326.85,156,328.26Z" style="fill:#263238"></path><path d="M148.27,290h0a3.08,3.08,0,0,0-1.33,2.9l3.86,26.9c.16,1.09,1,1.56,1.89,1.05h0A3.08,3.08,0,0,0,154,318l-3.85-26.89C150,290,149.15,289.5,148.27,290Z" style="fill:#263238"></path></g></g><g id="freepik--window--inject-2"><g id="freepik--window--inject-2"><path d="M337.85,125.8a1.12,1.12,0,0,0-.1-.31s0,0,0-.06a.86.86,0,0,0-.13-.29,1.37,1.37,0,0,0-.29-.42.49.49,0,0,0-.15-.17,1.42,1.42,0,0,0-.13-.12,2.16,2.16,0,0,0-.29-.21l0,0a2.17,2.17,0,0,0-.35-.15,3.17,3.17,0,0,0-2.58.39L160.48,224.22c-2,1.15-3.37,3.82-2.84,7.54l22.67,158.37-.22-1.57.11.73a2.55,2.55,0,0,0,1.69,1.95l.17.09.22.09a2,2,0,0,0,.35.09,2.85,2.85,0,0,0,.5,0,2.67,2.67,0,0,0,1.25-.37l.09-.05h0l3.45-2,169.74-97.79a6.42,6.42,0,0,0,3.06-5.94L337.94,126.21A2.71,2.71,0,0,0,337.85,125.8Z" style="fill:#fafafa"></path><path d="M335.54,125a1.36,1.36,0,0,1,.49.08l.13,0h0l.06,0,.08.05.09.09,0,0h0l0,0,.09.1.05.06v0l.18.32v0l0,0,0,0s0,0,0,.07a3,3,0,0,1,.06.32l22.8,159.18a5.43,5.43,0,0,1-2.56,4.9L187.41,388.23l-3.35,1.93h0l-.09.07-.07,0a1.64,1.64,0,0,1-.74.24h-.07l-.27,0-.14,0c-.06,0-.11,0-.11-.05l-.14-.06,0,0h0l0,0a1.55,1.55,0,0,1-1.05-1.13l-.1-.74-.08-.48L158.66,231.61c-.5-3.5.88-5.65,2.33-6.49l173.29-99.78a2.66,2.66,0,0,1,1.26-.38m0-1a3.63,3.63,0,0,0-1.77.52l-173.3,99.78c-2,1.15-3.36,3.82-2.83,7.54l22.67,158.31c-.21-1.41-.22-1.51-.22-1.51h0l.11.73a2.55,2.55,0,0,0,1.69,1.95l.17.09.22.09a2,2,0,0,0,.35.09l.42,0h.08a2.67,2.67,0,0,0,1.25-.37l.09-.05h0l3.45-2,169.74-97.79a6.42,6.42,0,0,0,3.06-5.94L337.94,126.21a2.71,2.71,0,0,0-.09-.41,1.12,1.12,0,0,0-.1-.31s0,0,0-.06a.86.86,0,0,0-.13-.29,1.37,1.37,0,0,0-.29-.42.49.49,0,0,0-.15-.17,1.42,1.42,0,0,0-.13-.12,2.16,2.16,0,0,0-.29-.21l0,0a2.17,2.17,0,0,0-.35-.15,2.64,2.64,0,0,0-.81-.13ZM180.31,390.07v0Z" style="fill:#407BFF"></path><path d="M336.35,124.05a3.17,3.17,0,0,0-2.58.39L160.48,224.22a6.46,6.46,0,0,0-3.07,5.95l.93,6.47-5.32-2.3L152.1,228a6.43,6.43,0,0,1,3.05-5.93l173.31-99.78a3,3,0,0,1,2.79-.31C332,122.26,335.46,123.71,336.35,124.05Z" style="fill:#407BFF"></path><path d="M337.93,126.19c-.32-2.11-2.17-2.89-4.16-1.74l-173.3,99.78a6.45,6.45,0,0,0-3.06,5.93l.93,6.48L338.86,132.7Z" style="fill:#407BFF"></path><g style="opacity:0.2"><path d="M333.77,124.45,160.48,224.23a6.44,6.44,0,0,0-2.39,2.59l-5.29-2.26a6.24,6.24,0,0,1,2.36-2.54l173.3-99.78a3,3,0,0,1,2.8-.32c.74.34,4.2,1.78,5.07,2.13A3.07,3.07,0,0,0,333.77,124.45Z" style="fill:#fff"></path></g><path d="M153,234.36,152.1,228a5.73,5.73,0,0,1,.7-3.39l5.3,2.24a5.63,5.63,0,0,0-.68,3.37l.92,6.47Z" style="opacity:0.15"></path><path d="M322.17,134.71a2.93,2.93,0,0,0-1.27,2.77c.15,1,1,1.49,1.81,1a2.94,2.94,0,0,0,1.26-2.77C323.82,134.67,323,134.22,322.17,134.71Z" style="fill:#fafafa"></path><path d="M327.68,131.52a2.94,2.94,0,0,0-1.26,2.77c.15,1,1,1.49,1.81,1a2.94,2.94,0,0,0,1.26-2.77C329.34,131.48,328.53,131,327.68,131.52Z" style="fill:#fafafa"></path><path d="M333.2,128.32a3,3,0,0,0-1.26,2.78c.15,1,1,1.49,1.8,1a2.93,2.93,0,0,0,1.27-2.77C334.86,128.28,334.05,127.84,333.2,128.32Z" style="fill:#fafafa"></path><path d="M181.88,391.26l-.21-.09-4.39-1.87a4.1,4.1,0,0,1-2.4-2.5,2.88,2.88,0,0,1-.11-.49L153,234.34l5.33,2.3,21.85,152.65a2.45,2.45,0,0,0,1.48,1.84l.14.07,0,0Z" style="fill:#407BFF"></path><path d="M181.88,391.26l-.21-.09-4.39-1.87a4.1,4.1,0,0,1-2.4-2.5,2.88,2.88,0,0,1-.11-.49L153,234.34l5.33,2.3,21.85,152.65a2.45,2.45,0,0,0,1.48,1.84l.14.07,0,0Z" style="fill:#fff;opacity:0.5"></path></g><polygon points="252.51 205.76 173.2 251.55 171.25 237.9 250.56 192.11 252.51 205.76" style="fill:#e0e0e0"></polygon><path d="M171.25,262.79a.91.91,0,0,1-.46-1.69L334.2,166.76a.91.91,0,0,1,1.24.33.9.9,0,0,1-.33,1.23L171.7,262.67A.92.92,0,0,1,171.25,262.79Z" style="fill:#e0e0e0"></path><path d="M211,252.31l-31.21,18c-1.14.65-2.23.05-2.43-1.35l0-.38a4,4,0,0,1,1.7-3.73l31.21-18c1.14-.66,2.23-.05,2.43,1.35l0,.38A3.93,3.93,0,0,1,211,252.31Z" style="fill:#e0e0e0"></path><path d="M270.33,218.08l-31.22,18c-1.13.66-2.22.05-2.42-1.35l-.05-.38a3.94,3.94,0,0,1,1.69-3.72l31.22-18c1.14-.65,2.22-.05,2.42,1.35l.06.38A4,4,0,0,1,270.33,218.08Z" style="fill:#e0e0e0"></path><path d="M329.62,183.84l-31.21,18c-1.14.65-2.22,0-2.42-1.35l-.06-.38a4,4,0,0,1,1.7-3.73l31.21-18c1.14-.66,2.23,0,2.43,1.35l.05.38A3.93,3.93,0,0,1,329.62,183.84Z" style="fill:#e0e0e0"></path><polygon points="260.86 292.78 185.63 336.22 178.4 285.72 253.63 242.28 260.86 292.78" style="fill:#e0e0e0"></polygon><path d="M229.12,282l-15.89-3.46a1.78,1.78,0,0,0-2.15,2l3.34,23.35a1.79,1.79,0,0,0,3.28.7l12.55-19.89A1.78,1.78,0,0,0,229.12,282Z" style="fill:#fafafa"></path><path d="M302.82,220.14l-39.38,22.74c-1.2.69-2.35.05-2.56-1.43l-.06-.4a4.17,4.17,0,0,1,1.8-4L302,214.36c1.21-.69,2.36-.05,2.57,1.43l.06.4A4.17,4.17,0,0,1,302.82,220.14Z" style="fill:#e0e0e0"></path><path d="M262.2,251.59a.89.89,0,0,1-.78-.45.9.9,0,0,1,.33-1.24l74.46-43a.9.9,0,0,1,.9,1.57l-74.46,43A.92.92,0,0,1,262.2,251.59Z" style="fill:#e0e0e0"></path><path d="M263.24,258.84a.92.92,0,0,1-.79-.46.9.9,0,0,1,.33-1.23l74.47-43a.9.9,0,0,1,.9,1.56l-74.46,43A.92.92,0,0,1,263.24,258.84Z" style="fill:#e0e0e0"></path><path d="M264.27,266.08a.9.9,0,0,1-.45-1.68l51-29.42a.9.9,0,0,1,.9,1.56l-51,29.42A.8.8,0,0,1,264.27,266.08Z" style="fill:#e0e0e0"></path><path d="M265.31,273.33a.9.9,0,0,1-.45-1.68l74.46-43a.91.91,0,0,1,.91,1.57l-74.47,43A.89.89,0,0,1,265.31,273.33Z" style="fill:#e0e0e0"></path><path d="M266.35,280.58a.89.89,0,0,1-.78-.45.9.9,0,0,1,.33-1.24l74.46-43a.9.9,0,0,1,.9,1.57l-74.46,43A.92.92,0,0,1,266.35,280.58Z" style="fill:#e0e0e0"></path><path d="M267.39,287.83a.91.91,0,0,1-.46-1.69L298.31,268a.9.9,0,1,1,.9,1.56l-31.37,18.12A.92.92,0,0,1,267.39,287.83Z" style="fill:#e0e0e0"></path><polygon points="267.88 341.77 263.49 311.16 188.26 354.6 192.64 385.21 267.88 341.77" style="fill:#e0e0e0"></polygon><path d="M240.11,353.55a1.79,1.79,0,0,0-1.13-2.7l-15.89-3.46a1.78,1.78,0,0,0-2.15,2l2.58,18,12.36-7.14Z" style="fill:#fafafa"></path><path d="M312.68,289l-39.37,22.73c-1.21.7-2.36.06-2.57-1.43l-.06-.4a4.19,4.19,0,0,1,1.8-3.95l39.37-22.73c1.21-.7,2.36-.06,2.57,1.43l.06.4A4.19,4.19,0,0,1,312.68,289Z" style="fill:#e0e0e0"></path><path d="M272.06,320.46a.89.89,0,0,1-.78-.45.9.9,0,0,1,.33-1.23l74.46-43a.92.92,0,0,1,1.24.33.9.9,0,0,1-.34,1.24l-74.46,43A.92.92,0,0,1,272.06,320.46Z" style="fill:#e0e0e0"></path><path d="M273.1,327.71a.91.91,0,0,1-.46-1.69l74.47-43a.9.9,0,0,1,1.23.33.91.91,0,0,1-.33,1.24l-74.46,43A.92.92,0,0,1,273.1,327.71Z" style="fill:#e0e0e0"></path><path d="M274.14,335a.91.91,0,0,1-.46-1.69l51-29.42a.9.9,0,0,1,1.23.33.91.91,0,0,1-.33,1.24l-51,29.42A1,1,0,0,1,274.14,335Z" style="fill:#e0e0e0"></path><path d="M276.06,177.63a.89.89,0,0,1-.78-.45.9.9,0,0,1,.33-1.23l46.75-27a.9.9,0,0,1,.9,1.56l-46.75,27A.92.92,0,0,1,276.06,177.63Z" style="fill:#e0e0e0"></path><path d="M277.1,184.88a.92.92,0,0,1-.79-.45.89.89,0,0,1,.34-1.23l46.74-27a.91.91,0,0,1,.91,1.57l-46.75,27A.92.92,0,0,1,277.1,184.88Z" style="fill:#e0e0e0"></path><path d="M278.14,192.13a.91.91,0,0,1-.46-1.69l46.74-27a.91.91,0,0,1,1.24.33.9.9,0,0,1-.33,1.23l-46.74,27A1,1,0,0,1,278.14,192.13Z" style="fill:#e0e0e0"></path></g></g></svg>
